<svg xmlns="http://www.w3.org/2000/svg" width="1200" height="848" viewBox="0 0 1200 848">
<defs><style>

</style></defs>
<rect width="100%" height="100%" fill="#ffffff"/>
<g transform="translate(100.00,80.00)">
<text x="280.00" y="-8.00" font-family="Helvetica, Arial, sans-serif" font-size="32" fill="#1e1e1e" text-anchor="start"><tspan x="280.00" dy="0">HOLOGRAPHIC WORK</tspan></text>
</g>
<g transform="translate(100.00,80.00)">
<text x="180.00" y="16.00" font-family="Helvetica, Arial, sans-serif" font-size="16" fill="#757575" text-anchor="start"><tspan x="180.00" dy="0">One conversation. The infrastructure produces everything else.</tspan></text>
</g>
<g transform="translate(100.00,80.00)" opacity="0.10">
<path d="M98.40 59.42 L901.05 61.81 L900.25 658.23 L100.93 661.53" stroke="none" fill="#dbe4ff"/>
<path d="M100.34 60.39 C259.88 60.47,419.78 59.31,899.68 60.16 M99.74 60.11 C277.26 60.33,454.20 60.10,899.77 60.30 M900.61 59.30 C900.44 190.99,900.72 320.35,900.56 659.65 M900.12 59.68 C900.10 220.69,899.71 382.09,900.16 660.14 M900.42 659.91 C727.87 659.92,554.25 659.71,100.73 659.84 M899.62 659.94 C599.23 660.11,298.86 660.00,100.38 660.02 M99.71 659.89 C100.50 487.30,99.81 315.90,100.24 59.52 M100.09 660.40 C99.69 441.48,99.89 223.12,100.18 60.40" stroke="#4a9eed" stroke-width="1" fill="none" stroke-linecap="round" stroke-linejoin="round"/>
</g>
<g transform="translate(100.00,80.00)">
<path d="M508.59 122.72 C522.98 122.17,538.53 127.46,551.94 131.38 C565.35 135.31,578.92 139.84,589.07 146.25 C599.22 152.65,607.11 161.35,612.85 169.80 C618.59 178.25,622.81 187.75,623.51 196.95 C624.22 206.15,621.92 216.04,617.09 224.99 C612.27 233.93,604.46 243.45,594.56 250.61 C584.65 257.78,570.84 263.80,557.66 267.98 C544.49 272.15,530.14 274.57,515.50 275.65 C500.85 276.74,484.19 276.72,469.80 274.50 C455.40 272.29,441.43 267.85,429.14 262.35 C416.86 256.84,404.39 249.04,396.10 241.47 C387.81 233.90,382.52 225.88,379.41 216.93 C376.30 207.98,375.21 197.08,377.43 187.75 C379.65 178.41,385.29 168.80,392.73 160.92 C400.17 153.04,410.26 146.05,422.08 140.48 C433.90 134.91,446.32 130.10,463.67 127.50 C481.01 124.90,512.89 124.63,526.16 124.89 C539.43 125.14,543.81 127.85,543.28 129.04 M459.55 127.82 C472.68 123.74,490.40 123.88,505.26 124.16 C520.11 124.43,535.22 126.04,548.67 129.47 C562.12 132.89,575.16 138.50,585.97 144.68 C596.78 150.86,607.29 158.35,613.53 166.54 C619.77 174.73,622.64 184.37,623.40 193.82 C624.16 203.27,622.57 214.39,618.10 223.22 C613.64 232.06,605.87 239.69,596.61 246.82 C587.35 253.96,575.55 261.00,562.56 266.02 C549.56 271.04,533.34 275.40,518.62 276.94 C503.89 278.48,488.90 277.21,474.21 275.27 C459.52 273.33,442.89 270.60,430.49 265.30 C418.09 260.00,408.43 251.17,399.81 243.45 C391.20 235.72,382.60 227.69,378.80 218.94 C374.99 210.20,375.07 200.27,376.99 190.96 C378.92 181.66,383.44 171.38,390.37 163.10 C397.29 154.83,406.95 147.27,418.51 141.31 C430.08 135.36,452.69 129.47,459.74 127.37 C466.79 125.27,460.34 127.46,460.82 128.69" stroke="none" fill="#fff3bf"/>
<path d="M529.19 124.67 C543.33 125.54,558.31 131.97,570.41 137.37 C582.51 142.77,593.37 149.54,601.79 157.07 C610.21 164.60,617.49 173.42,620.93 182.54 C624.36 191.66,624.54 202.54,622.40 211.79 C620.27 221.04,615.47 230.21,608.10 238.07 C600.73 245.92,589.74 253.22,578.19 258.90 C566.65 264.57,553.09 269.14,538.83 272.12 C524.57 275.10,507.45 277.31,492.60 276.79 C477.76 276.26,463.13 272.71,449.76 268.96 C436.38 265.21,422.74 260.88,412.36 254.29 C401.97 247.71,393.27 238.11,387.43 229.45 C381.58 220.79,378.02 211.38,377.28 202.34 C376.54 193.30,378.33 183.83,382.98 175.22 C387.63 166.62,395.65 157.78,405.19 150.72 C414.72 143.67,427.17 137.47,440.18 132.88 C453.20 128.30,466.33 123.98,483.30 123.22 C500.27 122.45,530.33 126.90,541.99 128.29 C553.65 129.68,553.92 130.27,553.26 131.57 M531.99 124.70 C546.06 125.93,560.52 133.68,572.49 139.54 C584.45 145.41,595.74 152.28,603.78 159.86 C611.82 167.44,617.96 176.20,620.71 185.03 C623.46 193.85,622.78 203.68,620.29 212.82 C617.80 221.95,612.99 231.89,605.77 239.85 C598.55 247.80,588.48 254.92,576.99 260.53 C565.51 266.14,551.34 270.68,536.87 273.51 C522.39 276.35,505.21 278.36,490.13 277.53 C475.05 276.71,459.82 272.60,446.41 268.57 C433.00 264.55,420.04 260.10,409.69 253.39 C399.35 246.69,389.84 236.99,384.33 228.34 C378.82 219.70,376.81 210.53,376.65 201.52 C376.48 192.50,378.01 183.16,383.32 174.26 C388.63 165.36,398.43 154.95,408.50 148.13 C418.57 141.31,430.87 137.57,443.74 133.34 C456.61 129.11,471.06 124.23,485.72 122.77 C500.39 121.32,523.99 123.58,531.73 124.61 C539.46 125.63,532.82 127.54,532.15 128.92" stroke="#f59e0b" stroke-width="3" fill="none" stroke-linecap="round" stroke-linejoin="round"/>
</g>
<g transform="translate(100.00,80.00)">
<text x="410.00" y="304.00" font-family="Helvetica, Arial, sans-serif" font-size="14" fill="#f59e0b" text-anchor="start"><tspan x="410.00" dy="0">e.g. &quot;let's make blog diagrams&quot;</tspan></text>
</g>
<g transform="translate(100.00,80.00)">
<text x="110.00" y="654.00" font-family="Helvetica, Arial, sans-serif" font-size="14" fill="#4a9eed" text-anchor="start"><tspan x="110.00" dy="0">INFRASTRUCTURE: skills, hooks, automations, progressive disclosure</tspan></text>
</g>
<g transform="translate(100.00,80.00)">
<text x="110.00" y="672.00" font-family="Helvetica, Arial, sans-serif" font-size="14" fill="#ef4444" text-anchor="start"><tspan x="110.00" dy="0">The top-level AI doesn't know about most of this. It just talks.</tspan></text>
</g>
<g transform="translate(100.00,80.00)">
<path d="M-61.60 79.42 L81.05 81.81 L80.25 133.23 L-59.07 136.53" stroke="none" fill="#a5d8ff"/>
<path d="M-59.14 80.96 C-32.32 81.16,-4.56 78.27,79.21 80.39 M-60.65 80.26 C-28.57 80.81,2.06 80.24,79.42 80.75 M81.54 78.25 C81.10 93.19,81.79 102.28,81.39 134.13 M80.30 79.20 C80.24 93.90,79.27 109.55,80.41 135.35 M81.05 134.79 C50.84 134.81,17.93 134.26,-58.16 134.60 M79.06 134.86 C27.28 135.26,-24.46 134.99,-59.06 135.04 M-60.72 134.72 C-58.74 117.70,-60.47 103.63,-59.41 78.79 M-59.78 136.00 C-60.78 114.34,-60.27 94.09,-59.56 80.99" stroke="#4a9eed" stroke-width="2" fill="none" stroke-linecap="round" stroke-linejoin="round"/>
</g>
<g transform="translate(100.00,80.00)">
<text x="-55.00" y="151.00" font-family="Helvetica, Arial, sans-serif" font-size="11" fill="#757575" text-anchor="start"><tspan x="-55.00" dy="0">reusable pattern</tspan><tspan x="-55.00" dy="13.75">auto-crystallized</tspan></text>
</g>
<g transform="translate(100.00,80.00)">
<path d="M-61.60 199.42 L81.05 201.81 L80.25 253.23 L-59.07 256.53" stroke="none" fill="#b2f2bb"/>
<path d="M-59.14 200.96 C-32.32 201.16,-4.56 198.27,79.21 200.39 M-60.65 200.26 C-28.57 200.81,2.06 200.24,79.42 200.75 M81.54 198.25 C81.10 213.19,81.79 222.28,81.39 254.13 M80.30 199.20 C80.24 213.90,79.27 229.55,80.41 255.35 M81.05 254.79 C50.84 254.81,17.93 254.26,-58.16 254.60 M79.06 254.86 C27.28 255.26,-24.46 254.99,-59.06 255.04 M-60.72 254.72 C-58.74 237.70,-60.47 223.63,-59.41 198.79 M-59.78 256.00 C-60.78 234.34,-60.27 214.09,-59.56 200.99" stroke="#22c55e" stroke-width="2" fill="none" stroke-linecap="round" stroke-linejoin="round"/>
</g>
<g transform="translate(100.00,80.00)">
<text x="-55.00" y="271.00" font-family="Helvetica, Arial, sans-serif" font-size="11" fill="#757575" text-anchor="start"><tspan x="-55.00" dy="0">framework narrative</tspan><tspan x="-55.00" dy="13.75">auto-published</tspan></text>
</g>
<g transform="translate(100.00,80.00)">
<path d="M-61.60 329.42 L81.05 331.81 L80.25 383.23 L-59.07 386.53" stroke="none" fill="#d0bfff"/>
<path d="M-59.14 330.96 C-32.32 331.16,-4.56 328.27,79.21 330.39 M-60.65 330.26 C-28.57 330.81,2.06 330.24,79.42 330.75 M81.54 328.25 C81.10 343.19,81.79 352.28,81.39 384.13 M80.30 329.20 C80.24 343.90,79.27 359.55,80.41 385.35 M81.05 384.79 C50.84 384.81,17.93 384.26,-58.16 384.60 M79.06 384.86 C27.28 385.26,-24.46 384.99,-59.06 385.04 M-60.72 384.72 C-58.74 367.70,-60.47 353.63,-59.41 328.79 M-59.78 386.00 C-60.78 364.34,-60.27 344.09,-59.56 330.99" stroke="#8b5cf6" stroke-width="2" fill="none" stroke-linecap="round" stroke-linejoin="round"/>
</g>
<g transform="translate(100.00,80.00)">
<text x="-55.00" y="401.00" font-family="Helvetica, Arial, sans-serif" font-size="11" fill="#757575" text-anchor="start"><tspan x="-55.00" dy="0">sancrev opera</tspan><tspan x="-55.00" dy="13.75">auto-deployed</tspan></text>
</g>
<g transform="translate(100.00,80.00)">
<path d="M-61.60 459.42 L81.05 461.81 L80.25 513.23 L-59.07 516.53" stroke="none" fill="#ffc9c9"/>
<path d="M-59.14 460.96 C-32.32 461.16,-4.56 458.27,79.21 460.39 M-60.65 460.26 C-28.57 460.81,2.06 460.24,79.42 460.75 M81.54 458.25 C81.10 473.19,81.79 482.28,81.39 514.13 M80.30 459.20 C80.24 473.90,79.27 489.55,80.41 515.35 M81.05 514.79 C50.84 514.81,17.93 514.26,-58.16 514.60 M79.06 514.86 C27.28 515.26,-24.46 514.99,-59.06 515.04 M-60.72 514.72 C-58.74 497.70,-60.47 483.63,-59.41 458.79 M-59.78 516.00 C-60.78 494.34,-60.27 474.09,-59.56 460.99" stroke="#ef4444" stroke-width="2" fill="none" stroke-linecap="round" stroke-linejoin="round"/>
</g>
<g transform="translate(100.00,80.00)">
<text x="-55.00" y="531.00" font-family="Helvetica, Arial, sans-serif" font-size="11" fill="#757575" text-anchor="start"><tspan x="-55.00" dy="0">namthar entry</tspan><tspan x="-55.00" dy="13.75">auto-recorded</tspan></text>
</g>
<g transform="translate(100.00,80.00)">
<path d="M918.40 79.42 L1061.05 81.81 L1060.25 133.23 L920.93 136.53" stroke="none" fill="#ffd8a8"/>
<path d="M920.86 80.96 C947.68 81.16,975.44 78.27,1059.21 80.39 M919.35 80.26 C951.43 80.81,982.06 80.24,1059.42 80.75 M1061.54 78.25 C1061.10 93.19,1061.79 102.28,1061.39 134.13 M1060.30 79.20 C1060.24 93.90,1059.27 109.55,1060.41 135.35 M1061.05 134.79 C1030.84 134.81,997.93 134.26,921.84 134.60 M1059.06 134.86 C1007.28 135.26,955.54 134.99,920.94 135.04 M919.28 134.72 C921.26 117.70,919.53 103.63,920.59 78.79 M920.22 136.00 C919.22 114.34,919.73 94.09,920.44 80.99" stroke="#f59e0b" stroke-width="2" fill="none" stroke-linecap="round" stroke-linejoin="round"/>
</g>
<g transform="translate(100.00,80.00)">
<text x="925.00" y="151.00" font-family="Helvetica, Arial, sans-serif" font-size="11" fill="#757575" text-anchor="start"><tspan x="925.00" dy="0">video, shorts, posts</tspan><tspan x="925.00" dy="13.75">auto-pipeline</tspan></text>
</g>
<g transform="translate(100.00,80.00)">
<path d="M918.40 199.42 L1061.05 201.81 L1060.25 253.23 L920.93 256.53" stroke="none" fill="#c3fae8"/>
<path d="M920.86 200.96 C947.68 201.16,975.44 198.27,1059.21 200.39 M919.35 200.26 C951.43 200.81,982.06 200.24,1059.42 200.75 M1061.54 198.25 C1061.10 213.19,1061.79 222.28,1061.39 254.13 M1060.30 199.20 C1060.24 213.90,1059.27 229.55,1060.41 255.35 M1061.05 254.79 C1030.84 254.81,997.93 254.26,921.84 254.60 M1059.06 254.86 C1007.28 255.26,955.54 254.99,920.94 255.04 M919.28 254.72 C921.26 237.70,919.53 223.63,920.59 198.79 M920.22 256.00 C919.22 234.34,919.73 214.09,920.44 200.99" stroke="#06b6d4" stroke-width="2" fill="none" stroke-linecap="round" stroke-linejoin="round"/>
</g>
<g transform="translate(100.00,80.00)">
<text x="925.00" y="271.00" font-family="Helvetica, Arial, sans-serif" font-size="11" fill="#757575" text-anchor="start"><tspan x="925.00" dy="0">CartON concepts</tspan><tspan x="925.00" dy="13.75">auto-persisted</tspan></text>
</g>
<g transform="translate(100.00,80.00)">
<path d="M918.40 329.42 L1061.05 331.81 L1060.25 383.23 L920.93 386.53" stroke="none" fill="#eebefa"/>
<path d="M920.86 330.96 C947.68 331.16,975.44 328.27,1059.21 330.39 M919.35 330.26 C951.43 330.81,982.06 330.24,1059.42 330.75 M1061.54 328.25 C1061.10 343.19,1061.79 352.28,1061.39 384.13 M1060.30 329.20 C1060.24 343.90,1059.27 359.55,1060.41 385.35 M1061.05 384.79 C1030.84 384.81,997.93 384.26,921.84 384.60 M1059.06 384.86 C1007.28 385.26,955.54 384.99,920.94 385.04 M919.28 384.72 C921.26 367.70,919.53 353.63,920.59 328.79 M920.22 386.00 C919.22 364.34,919.73 344.09,920.44 330.99" stroke="#ec4899" stroke-width="2" fill="none" stroke-linecap="round" stroke-linejoin="round"/>
</g>
<g transform="translate(100.00,80.00)">
<text x="925.00" y="401.00" font-family="Helvetica, Arial, sans-serif" font-size="11" fill="#757575" text-anchor="start"><tspan x="925.00" dy="0">Jobworld egregore</tspan><tspan x="925.00" dy="13.75">auto-compiled</tspan></text>
</g>
<g transform="translate(100.00,80.00)">
<path d="M918.40 459.42 L1061.05 461.81 L1060.25 513.23 L920.93 516.53" stroke="none" fill="#fff3bf"/>
<path d="M920.86 460.96 C947.68 461.16,975.44 458.27,1059.21 460.39 M919.35 460.26 C951.43 460.81,982.06 460.24,1059.42 460.75 M1061.54 458.25 C1061.10 473.19,1061.79 482.28,1061.39 514.13 M1060.30 459.20 C1060.24 473.90,1059.27 489.55,1060.41 515.35 M1061.05 514.79 C1030.84 514.81,997.93 514.26,921.84 514.60 M1059.06 514.86 C1007.28 515.26,955.54 514.99,920.94 515.04 M919.28 514.72 C921.26 497.70,919.53 483.63,920.59 458.79 M920.22 516.00 C919.22 494.34,919.73 474.09,920.44 460.99" stroke="#f59e0b" stroke-width="2" fill="none" stroke-linecap="round" stroke-linejoin="round"/>
</g>
<g transform="translate(100.00,80.00)">
<text x="925.00" y="531.00" font-family="Helvetica, Arial, sans-serif" font-size="11" fill="#757575" text-anchor="start"><tspan x="925.00" dy="0">behavioral invariants</tspan><tspan x="925.00" dy="13.75">auto-enforced</tspan></text>
</g>
<g transform="translate(100.00,80.00)">
<path d="M370.72 170.81 C323.73 158.97,277.53 144.55,139.34 110.33 M369.46 170.22 C319.46 157.40,268.25 143.64,139.51 110.63" stroke="#4a9eed" stroke-width="2" fill="none" stroke-linecap="round" stroke-linejoin="round" stroke-dasharray="12 8"/>
<path d="M153.40 107.04 C151.35 108.00,148.24 108.62,139.89 109.72 M154.83 106.57 C149.63 107.52,144.73 109.29,139.54 110.03" stroke="#4a9eed" stroke-width="2" fill="none" stroke-linecap="round" stroke-linejoin="round"/>
<path d="M138.94 111.01 C141.94 113.17,143.87 115.11,150.56 120.26 M140.36 110.54 C144.19 113.94,148.26 118.04,150.21 120.56" stroke="#4a9eed" stroke-width="2" fill="none" stroke-linecap="round" stroke-linejoin="round"/>
</g>
<g transform="translate(100.00,80.00)">
<path d="M370.73 200.82 C323.73 206.99,277.52 210.54,139.33 230.33 M369.45 200.22 C319.46 207.33,268.25 213.49,139.51 230.64" stroke="#22c55e" stroke-width="2" fill="none" stroke-linecap="round" stroke-linejoin="round" stroke-dasharray="12 8"/>
<path d="M150.85 221.90 C149.32 223.88,146.72 225.53,139.89 229.72 M152.27 221.43 C148.04 224.22,144.05 227.82,139.54 230.03" stroke="#22c55e" stroke-width="2" fill="none" stroke-linecap="round" stroke-linejoin="round"/>
<path d="M138.94 231.01 C142.57 232.20,145.13 233.18,153.74 235.48 M140.36 230.54 C145.28 232.25,150.48 234.65,153.39 235.78" stroke="#22c55e" stroke-width="2" fill="none" stroke-linecap="round" stroke-linejoin="round"/>
</g>
<g transform="translate(100.00,80.00)">
<path d="M370.68 230.76 C323.75 256.92,277.55 280.63,139.37 360.31 M369.49 230.21 C319.44 259.42,268.25 287.74,139.54 360.60" stroke="#8b5cf6" stroke-width="2" fill="none" stroke-linecap="round" stroke-linejoin="round" stroke-dasharray="12 8"/>
<path d="M146.56 348.09 C145.89 350.81,144.16 353.23,139.89 359.72 M147.98 347.62 C145.31 351.79,142.85 356.75,139.54 360.03" stroke="#8b5cf6" stroke-width="2" fill="none" stroke-linecap="round" stroke-linejoin="round"/>
<path d="M138.94 361.01 C142.79 361.07,145.58 360.92,154.88 359.86 M140.36 360.54 C145.64 360.25,151.24 360.64,154.54 360.16" stroke="#8b5cf6" stroke-width="2" fill="none" stroke-linecap="round" stroke-linejoin="round"/>
</g>
<g transform="translate(100.00,80.00)">
<path d="M370.58 250.65 C323.78 298.79,277.62 344.83,139.46 490.27 M369.56 250.18 C319.39 303.68,268.24 356.41,139.61 490.51" stroke="#ef4444" stroke-width="2" fill="none" stroke-linecap="round" stroke-linejoin="round" stroke-dasharray="12 8"/>
<path d="M142.51 476.45 C142.66 479.48,141.74 482.23,139.89 489.72 M143.94 475.98 C142.73 480.75,141.71 486.29,139.54 490.03" stroke="#ef4444" stroke-width="2" fill="none" stroke-linecap="round" stroke-linejoin="round"/>
<path d="M138.94 491.01 C142.66 490.20,145.34 489.19,154.29 485.53 M140.36 490.54 C145.38 488.70,150.78 487.55,153.94 485.84" stroke="#ef4444" stroke-width="2" fill="none" stroke-linecap="round" stroke-linejoin="round"/>
</g>
<g transform="translate(100.00,80.00)">
<path d="M630.72 170.81 C675.73 158.97,721.53 144.55,859.34 110.33 M629.46 170.22 C681.28 157.40,731.89 143.64,859.51 110.63" stroke="#f59e0b" stroke-width="2" fill="none" stroke-linecap="round" stroke-linejoin="round" stroke-dasharray="12 8"/>
<path d="M848.26 121.55 C851.22 119.48,853.16 117.20,859.89 109.72 M849.69 121.08 C853.32 116.96,857.38 113.55,859.54 110.03" stroke="#f59e0b" stroke-width="2" fill="none" stroke-linecap="round" stroke-linejoin="round"/>
<path d="M858.94 111.01 C856.87 110.38,853.77 109.41,845.42 105.74 M860.36 110.54 C855.09 108.66,850.19 107.59,845.07 106.05" stroke="#f59e0b" stroke-width="2" fill="none" stroke-linecap="round" stroke-linejoin="round"/>
</g>
<g transform="translate(100.00,80.00)">
<path d="M630.73 200.82 C675.73 206.99,721.53 210.54,859.33 230.33 M629.45 200.22 C681.28 207.33,731.90 213.49,859.51 230.64" stroke="#06b6d4" stroke-width="2" fill="none" stroke-linecap="round" stroke-linejoin="round" stroke-dasharray="12 8"/>
<path d="M845.09 236.77 C848.69 235.65,851.26 234.32,859.89 229.72 M846.51 236.30 C851.32 233.90,856.52 232.19,859.54 230.03" stroke="#06b6d4" stroke-width="2" fill="none" stroke-linecap="round" stroke-linejoin="round"/>
<path d="M858.94 231.01 C857.37 229.34,854.78 227.34,847.97 220.60 M860.36 230.54 C855.96 226.84,851.96 223.94,847.63 220.91" stroke="#06b6d4" stroke-width="2" fill="none" stroke-linecap="round" stroke-linejoin="round"/>
</g>
<g transform="translate(100.00,80.00)">
<path d="M630.68 230.76 C675.75 256.92,721.56 280.63,859.37 360.31 M629.49 230.21 C681.26 259.42,731.89 287.74,859.54 360.60" stroke="#ec4899" stroke-width="2" fill="none" stroke-linecap="round" stroke-linejoin="round" stroke-dasharray="12 8"/>
<path d="M843.94 361.15 C847.79 361.15,850.58 360.95,859.89 359.72 M845.36 360.68 C850.64 360.29,856.24 360.58,859.54 360.03" stroke="#ec4899" stroke-width="2" fill="none" stroke-linecap="round" stroke-linejoin="round"/>
<path d="M858.94 361.01 C858.23 358.56,856.49 355.80,852.27 346.80 M860.36 360.54 C857.45 355.50,854.99 351.24,851.92 347.10" stroke="#ec4899" stroke-width="2" fill="none" stroke-linecap="round" stroke-linejoin="round"/>
</g>
<g transform="translate(100.00,80.00)">
<path d="M630.58 250.65 C675.78 298.79,721.62 344.83,859.46 490.27 M629.56 250.18 C681.21 303.68,731.88 356.41,859.61 490.51" stroke="#f59e0b" stroke-width="2" fill="none" stroke-linecap="round" stroke-linejoin="round" stroke-dasharray="12 8"/>
<path d="M844.53 486.82 C848.27 487.69,850.95 488.36,859.89 489.72 M845.96 486.35 C851.06 487.50,856.45 489.34,859.54 490.03" stroke="#f59e0b" stroke-width="2" fill="none" stroke-linecap="round" stroke-linejoin="round"/>
<path d="M858.94 491.01 C859.04 488.21,858.11 485.12,856.31 475.15 M860.36 490.54 C858.88 484.93,857.86 480.08,855.96 475.46" stroke="#f59e0b" stroke-width="2" fill="none" stroke-linecap="round" stroke-linejoin="round"/>
</g>
<g transform="translate(100.00,80.00)">
<text x="300.00" y="718.00" font-family="Helvetica, Arial, sans-serif" font-size="18" fill="#1e1e1e" text-anchor="start"><tspan x="300.00" dy="0">Every conversation refracts through infrastructure into all outputs.</tspan></text>
</g>
<g transform="translate(100.00,80.00)">
<text x="260.00" y="744.00" font-family="Helvetica, Arial, sans-serif" font-size="16" fill="#757575" text-anchor="start"><tspan x="260.00" dy="0">The same thing at different levels of compilation. That's holographic work.</tspan></text>
</g>
<g transform="translate(100.0,80.0)"><text x="500" y="183" font-family="Helvetica, Arial, sans-serif" font-size="20" fill="#1e1e1e" text-anchor="middle">YOU + AI</text></g>
<g transform="translate(100.0,80.0)"><text x="500" y="207" font-family="Helvetica, Arial, sans-serif" font-size="20" fill="#1e1e1e" text-anchor="middle">talk about</text></g>
<g transform="translate(100.0,80.0)"><text x="500" y="231" font-family="Helvetica, Arial, sans-serif" font-size="20" fill="#1e1e1e" text-anchor="middle">ONE THING</text></g>
<g transform="translate(100.0,80.0)"><text x="10" y="114" font-family="Helvetica, Arial, sans-serif" font-size="18" fill="#1e1e1e" text-anchor="middle">Skill</text></g>
<g transform="translate(100.0,80.0)"><text x="10" y="234" font-family="Helvetica, Arial, sans-serif" font-size="18" fill="#1e1e1e" text-anchor="middle">Blog Post</text></g>
<g transform="translate(100.0,80.0)"><text x="10" y="364" font-family="Helvetica, Arial, sans-serif" font-size="18" fill="#1e1e1e" text-anchor="middle">Code + CICD</text></g>
<g transform="translate(100.0,80.0)"><text x="10" y="493" font-family="Helvetica, Arial, sans-serif" font-size="16" fill="#1e1e1e" text-anchor="middle">Autobiography</text></g>
<g transform="translate(100.0,80.0)"><text x="990" y="114" font-family="Helvetica, Arial, sans-serif" font-size="18" fill="#1e1e1e" text-anchor="middle">Content</text></g>
<g transform="translate(100.0,80.0)"><text x="990" y="234" font-family="Helvetica, Arial, sans-serif" font-size="18" fill="#1e1e1e" text-anchor="middle">Knowledge</text></g>
<g transform="translate(100.0,80.0)"><text x="990" y="364" font-family="Helvetica, Arial, sans-serif" font-size="18" fill="#1e1e1e" text-anchor="middle">Business</text></g>
<g transform="translate(100.0,80.0)"><text x="990" y="494" font-family="Helvetica, Arial, sans-serif" font-size="18" fill="#1e1e1e" text-anchor="middle">Rules</text></g>
</svg>