<svg xmlns="http://www.w3.org/2000/svg" width="880" height="846" viewBox="0 0 880 846">
<defs><style>

</style></defs>
<rect width="100%" height="100%" fill="#ffffff"/>
<g transform="translate(40.00,70.00)">
<text x="300.00" y="2.00" font-family="Helvetica, Arial, sans-serif" font-size="32" fill="#1e1e1e" text-anchor="start"><tspan x="300.00" dy="0">HOLOGRAPHIC WORK</tspan></text>
</g>
<g transform="translate(40.00,70.00)">
<text x="160.00" y="26.00" font-family="Helvetica, Arial, sans-serif" font-size="16" fill="#757575" text-anchor="start"><tspan x="160.00" dy="0">One conversation enters. The infrastructure refracts it into everything.</tspan></text>
</g>
<g transform="translate(40.00,70.00)">
<path d="M98.65 202.56 C110.15 202.76,123.59 207.33,134.35 211.65 C145.12 215.96,156.52 221.40,163.24 228.45 C169.95 235.49,173.23 245.48,174.64 253.90 C176.05 262.32,175.84 271.10,171.70 278.95 C167.55 286.80,158.51 295.24,149.77 301.00 C141.03 306.75,130.76 310.61,119.26 313.47 C107.77 316.33,93.20 319.01,80.82 318.16 C68.44 317.30,55.67 312.96,45.00 308.32 C34.33 303.68,23.43 297.40,16.78 290.31 C10.14 283.22,6.28 274.09,5.14 265.79 C3.99 257.50,5.71 248.17,9.90 240.55 C14.08 232.93,21.76 225.82,30.27 220.08 C38.77 214.35,48.62 209.02,60.94 206.13 C73.26 203.25,96.39 202.94,104.19 202.77 C111.98 202.59,107.93 204.07,107.73 205.07 M56.59 206.50 C66.93 202.40,80.40 201.62,92.43 201.88 C104.47 202.14,117.71 203.88,128.82 208.07 C139.93 212.27,151.43 220.27,159.11 227.06 C166.79 233.85,172.68 240.92,174.88 248.84 C177.09 256.75,175.87 266.63,172.35 274.53 C168.82 282.44,161.87 290.09,153.74 296.27 C145.62 302.45,134.92 307.93,123.60 311.63 C112.29 315.34,97.96 318.58,85.83 318.49 C73.70 318.40,61.33 314.97,50.82 311.07 C40.31 307.16,30.14 301.77,22.76 295.08 C15.38 288.39,9.11 279.27,6.53 270.92 C3.96 262.57,4.02 253.27,7.32 244.98 C10.63 236.69,18.29 227.69,26.35 221.17 C34.42 214.65,50.66 208.00,55.72 205.87 C60.78 203.73,56.08 207.45,56.71 208.36" stroke="none" fill="#fff3bf"/>
<path d="M110.12 203.29 C121.80 204.27,134.56 210.43,144.01 215.83 C153.47 221.23,161.53 228.27,166.85 235.68 C172.17 243.09,175.95 251.88,175.92 260.30 C175.89 268.73,172.16 278.69,166.67 286.25 C161.19 293.80,152.80 300.73,143.01 305.64 C133.21 310.55,120.00 314.13,107.89 315.69 C95.78 317.26,82.47 316.87,70.35 315.02 C58.22 313.17,44.67 309.89,35.13 304.59 C25.59 299.29,18.14 290.70,13.13 283.22 C8.12 275.73,4.83 267.97,5.06 259.66 C5.29 251.35,8.91 240.98,14.49 233.37 C20.06 225.76,28.91 218.90,38.50 214.01 C48.09 209.13,58.41 205.27,72.04 204.04 C85.67 202.82,110.75 205.55,120.27 206.67 C129.80 207.78,129.76 210.00,129.20 210.72 M89.90 202.89 C101.81 202.17,118.38 205.55,129.63 209.32 C140.88 213.09,150.10 219.30,157.41 225.53 C164.71 231.76,170.94 238.47,173.46 246.71 C175.99 254.94,175.48 266.46,172.54 274.94 C169.59 283.42,163.62 291.38,155.81 297.61 C148.00 303.84,137.08 309.04,125.69 312.32 C114.29 315.60,99.74 317.37,87.42 317.29 C75.09 317.21,62.35 315.54,51.72 311.87 C41.09 308.19,30.95 301.86,23.63 295.23 C16.30 288.60,10.62 280.04,7.80 272.09 C4.98 264.14,4.05 255.71,6.71 247.53 C9.38 239.34,15.95 229.45,23.79 222.99 C31.63 216.54,42.71 212.27,53.75 208.79 C64.79 205.32,83.77 202.93,90.02 202.14 C96.28 201.36,91.26 202.91,91.28 204.09" stroke="#f59e0b" stroke-width="3" fill="none" stroke-linecap="round" stroke-linejoin="round"/>
</g>
<g transform="translate(40.00,70.00)">
<path d="M180.86 260.96 C199.68 261.16,219.44 258.27,279.21 260.39 M179.35 260.26 C202.57 260.81,224.36 260.24,279.42 260.75" stroke="#f59e0b" stroke-width="4" fill="none" stroke-linecap="round" stroke-linejoin="round"/>
<path d="M257.80 273.35 C263.07 270.98,266.95 268.35,279.85 259.63 M259.70 272.72 C266.90 267.99,274.65 264.17,279.38 260.03" stroke="#f59e0b" stroke-width="4" fill="none" stroke-linecap="round" stroke-linejoin="round"/>
<path d="M278.58 261.35 C275.52 259.17,271.07 256.54,259.06 247.63 M280.48 260.72 C272.86 255.82,265.79 252.01,258.60 248.03" stroke="#f59e0b" stroke-width="4" fill="none" stroke-linecap="round" stroke-linejoin="round"/>
</g>
<g transform="translate(40.00,70.00)">
<text x="190.00" y="254.00" font-family="Helvetica, Arial, sans-serif" font-size="14" fill="#f59e0b" text-anchor="start"><tspan x="190.00" dy="0">conversation</tspan></text>
</g>
<g transform="translate(40.00,70.00)">
<path d="M378.40 119.42 L481.05 271.81 L380.25 418.23 L280.93 271.53" stroke="none" fill="#dbe4ff"/>
<path d="M380.86 120.96 C399.68 151.16,419.44 178.27,479.21 270.39 M379.35 120.26 C402.57 154.02,424.36 186.65,479.42 270.75 M481.54 268.25 C459.35 303.86,438.29 333.61,381.39 419.13 M480.30 269.20 C453.40 309.40,425.59 350.55,380.41 420.35 M381.05 419.79 C359.46 387.46,335.18 354.56,281.84 269.60 M379.06 419.86 C342.32 363.88,305.61 307.22,280.94 270.04 M279.28 269.72 C309.94 225.45,336.89 184.14,380.59 118.79 M280.22 271.00 C315.60 214.78,352.48 159.97,380.44 120.99" stroke="#4a9eed" stroke-width="3" fill="none" stroke-linecap="round" stroke-linejoin="round"/>
</g>
<g transform="translate(40.00,70.00)">
<path d="M480.86 150.96 C507.68 141.16,535.44 128.27,619.21 100.39 M479.35 150.26 C511.43 139.75,542.06 128.11,619.42 100.75" stroke="#4a9eed" stroke-width="2" fill="none" stroke-linecap="round" stroke-linejoin="round"/>
<path d="M609.23 112.45 C611.99 110.21,613.73 107.74,619.89 99.72 M610.65 111.98 C613.93 107.53,617.65 103.80,619.54 100.03" stroke="#4a9eed" stroke-width="2" fill="none" stroke-linecap="round" stroke-linejoin="round"/>
<path d="M618.94 101.01 C616.82 100.64,613.65 99.93,605.13 97.03 M620.36 100.54 C615.00 99.12,610.00 98.51,604.78 97.33" stroke="#4a9eed" stroke-width="2" fill="none" stroke-linecap="round" stroke-linejoin="round"/>
</g>
<g transform="translate(40.00,70.00)">
<path d="M480.86 190.96 C507.68 187.16,535.44 180.27,619.21 170.39 M479.35 190.26 C511.43 186.39,542.06 181.39,619.42 170.75" stroke="#22c55e" stroke-width="2" fill="none" stroke-linecap="round" stroke-linejoin="round"/>
<path d="M607.14 180.28 C610.33 178.46,612.49 176.43,619.89 169.72 M608.56 179.81 C612.61 176.14,617.07 173.19,619.54 170.03" stroke="#22c55e" stroke-width="2" fill="none" stroke-linecap="round" stroke-linejoin="round"/>
<path d="M618.94 171.01 C616.98 170.06,613.98 168.77,605.96 164.13 M620.36 170.54 C615.27 168.09,610.57 166.45,605.62 164.44" stroke="#22c55e" stroke-width="2" fill="none" stroke-linecap="round" stroke-linejoin="round"/>
</g>
<g transform="translate(40.00,70.00)">
<path d="M480.86 230.96 C507.68 231.16,535.44 228.27,619.21 230.39 M479.35 230.26 C511.43 230.81,542.06 230.24,619.42 230.75" stroke="#8b5cf6" stroke-width="2" fill="none" stroke-linecap="round" stroke-linejoin="round"/>
<path d="M605.95 238.51 C609.38 237.05,611.77 235.37,619.89 229.72 M607.37 238.04 C611.86 235.02,616.75 232.69,619.54 230.03" stroke="#8b5cf6" stroke-width="2" fill="none" stroke-linecap="round" stroke-linejoin="round"/>
<path d="M618.94 231.01 C617.16 229.67,614.35 227.99,606.89 222.22 M620.36 230.54 C615.59 227.41,611.21 225.09,606.55 222.53" stroke="#8b5cf6" stroke-width="2" fill="none" stroke-linecap="round" stroke-linejoin="round"/>
</g>
<g transform="translate(40.00,70.00)">
<path d="M480.86 270.96 C507.68 271.16,535.44 268.27,619.21 270.39 M479.35 270.26 C511.43 270.81,542.06 270.24,619.42 270.75" stroke="#f59e0b" stroke-width="2" fill="none" stroke-linecap="round" stroke-linejoin="round"/>
<path d="M605.95 278.51 C609.38 277.05,611.77 275.37,619.89 269.72 M607.37 278.04 C611.86 275.02,616.75 272.69,619.54 270.03" stroke="#f59e0b" stroke-width="2" fill="none" stroke-linecap="round" stroke-linejoin="round"/>
<path d="M618.94 271.01 C617.16 269.67,614.35 267.99,606.89 262.22 M620.36 270.54 C615.59 267.41,611.21 265.09,606.55 262.53" stroke="#f59e0b" stroke-width="2" fill="none" stroke-linecap="round" stroke-linejoin="round"/>
</g>
<g transform="translate(40.00,70.00)">
<path d="M480.86 310.96 C507.68 315.16,535.44 316.27,619.21 330.39 M479.35 310.26 C511.43 315.24,542.06 319.10,619.42 330.75" stroke="#ec4899" stroke-width="2" fill="none" stroke-linecap="round" stroke-linejoin="round"/>
<path d="M605.02 336.60 C608.64 335.51,611.22 334.22,619.89 329.72 M606.44 336.13 C611.28 333.79,616.50 332.14,619.54 330.03" stroke="#ec4899" stroke-width="2" fill="none" stroke-linecap="round" stroke-linejoin="round"/>
<path d="M618.94 331.01 C617.40 329.31,614.82 327.28,608.09 320.46 M620.36 330.54 C615.99 326.79,612.04 323.83,607.74 320.76" stroke="#ec4899" stroke-width="2" fill="none" stroke-linecap="round" stroke-linejoin="round"/>
</g>
<g transform="translate(40.00,70.00)">
<path d="M480.86 350.96 C507.68 361.16,535.44 368.27,619.21 400.39 M479.35 350.26 C511.43 361.88,542.06 372.38,619.42 400.75" stroke="#ef4444" stroke-width="2" fill="none" stroke-linecap="round" stroke-linejoin="round"/>
<path d="M604.18 403.71 C607.98 403.20,610.73 402.48,619.89 399.72 M605.61 403.24 C610.77 401.93,616.29 401.32,619.54 400.03" stroke="#ef4444" stroke-width="2" fill="none" stroke-linecap="round" stroke-linejoin="round"/>
<path d="M618.94 401.01 C617.81 398.86,615.66 396.40,610.17 388.29 M620.36 400.54 C616.72 396.02,613.51 392.29,609.83 388.59" stroke="#ef4444" stroke-width="2" fill="none" stroke-linecap="round" stroke-linejoin="round"/>
</g>
<g transform="translate(40.00,70.00)">
<path d="M480.86 390.96 C507.68 407.16,535.44 420.27,619.21 470.39 M479.35 390.26 C511.43 408.52,542.06 425.66,619.42 470.75" stroke="#06b6d4" stroke-width="2" fill="none" stroke-linecap="round" stroke-linejoin="round"/>
<path d="M603.94 471.08 C607.79 471.09,610.58 470.91,619.89 469.72 M605.36 470.61 C610.64 470.24,616.24 470.56,619.54 470.03" stroke="#06b6d4" stroke-width="2" fill="none" stroke-linecap="round" stroke-linejoin="round"/>
<path d="M618.94 471.01 C618.24 468.55,616.52 465.78,612.33 456.76 M620.36 470.54 C617.47 465.49,615.03 461.22,611.98 457.07" stroke="#06b6d4" stroke-width="2" fill="none" stroke-linecap="round" stroke-linejoin="round"/>
</g>
<g transform="translate(40.00,70.00)">
<path d="M480.86 420.96 C507.68 443.16,535.44 462.27,619.21 530.39 M479.35 420.26 C511.43 445.16,542.06 468.94,619.42 530.75" stroke="#84cc16" stroke-width="2" fill="none" stroke-linecap="round" stroke-linejoin="round"/>
<path d="M604.09 528.89 C607.91 529.34,610.68 529.60,619.89 529.72 M605.52 528.41 C610.75 528.83,616.30 529.93,619.54 530.03" stroke="#84cc16" stroke-width="2" fill="none" stroke-linecap="round" stroke-linejoin="round"/>
<path d="M618.94 531.01 C618.64 528.35,617.31 525.38,614.30 515.80 M620.36 530.54 C618.17 525.15,616.43 520.53,613.96 516.10" stroke="#84cc16" stroke-width="2" fill="none" stroke-linecap="round" stroke-linejoin="round"/>
</g>
<g transform="translate(40.00,70.00)">
<path d="M628.40 69.42 L791.05 71.81 L790.25 113.23 L630.93 116.53" stroke="none" fill="#a5d8ff"/>
<path d="M630.86 70.96 C661.68 71.16,693.44 68.27,789.21 70.39 M629.35 70.26 C665.86 70.81,700.92 70.24,789.42 70.75 M791.54 68.25 C791.10 81.02,791.79 87.93,791.39 114.13 M790.30 69.20 C790.24 81.22,789.27 94.18,790.41 115.35 M791.05 114.79 C756.52 114.81,719.30 114.26,631.84 114.60 M789.06 114.86 C729.77 115.26,670.50 114.99,630.94 115.04 M629.28 114.72 C631.26 100.57,629.53 89.37,630.59 68.79 M630.22 116.00 C629.22 97.98,629.73 81.36,630.44 70.99" stroke="#4a9eed" stroke-width="2" fill="none" stroke-linecap="round" stroke-linejoin="round"/>
</g>
<g transform="translate(40.00,70.00)">
<path d="M628.40 139.42 L791.05 141.81 L790.25 183.23 L630.93 186.53" stroke="none" fill="#b2f2bb"/>
<path d="M630.86 140.96 C661.68 141.16,693.44 138.27,789.21 140.39 M629.35 140.26 C665.86 140.81,700.92 140.24,789.42 140.75 M791.54 138.25 C791.10 151.02,791.79 157.93,791.39 184.13 M790.30 139.20 C790.24 151.22,789.27 164.18,790.41 185.35 M791.05 184.79 C756.52 184.81,719.30 184.26,631.84 184.60 M789.06 184.86 C729.77 185.26,670.50 184.99,630.94 185.04 M629.28 184.72 C631.26 170.57,629.53 159.37,630.59 138.79 M630.22 186.00 C629.22 167.98,629.73 151.36,630.44 140.99" stroke="#22c55e" stroke-width="2" fill="none" stroke-linecap="round" stroke-linejoin="round"/>
</g>
<g transform="translate(40.00,70.00)">
<path d="M628.40 209.42 L791.05 211.81 L790.25 253.23 L630.93 256.53" stroke="none" fill="#d0bfff"/>
<path d="M630.86 210.96 C661.68 211.16,693.44 208.27,789.21 210.39 M629.35 210.26 C665.86 210.81,700.92 210.24,789.42 210.75 M791.54 208.25 C791.10 221.02,791.79 227.93,791.39 254.13 M790.30 209.20 C790.24 221.22,789.27 234.18,790.41 255.35 M791.05 254.79 C756.52 254.81,719.30 254.26,631.84 254.60 M789.06 254.86 C729.77 255.26,670.50 254.99,630.94 255.04 M629.28 254.72 C631.26 240.57,629.53 229.37,630.59 208.79 M630.22 256.00 C629.22 237.98,629.73 221.36,630.44 210.99" stroke="#8b5cf6" stroke-width="2" fill="none" stroke-linecap="round" stroke-linejoin="round"/>
</g>
<g transform="translate(40.00,70.00)">
<path d="M628.40 279.42 L791.05 281.81 L790.25 323.23 L630.93 326.53" stroke="none" fill="#ffd8a8"/>
<path d="M630.86 280.96 C661.68 281.16,693.44 278.27,789.21 280.39 M629.35 280.26 C665.86 280.81,700.92 280.24,789.42 280.75 M791.54 278.25 C791.10 291.02,791.79 297.93,791.39 324.13 M790.30 279.20 C790.24 291.22,789.27 304.18,790.41 325.35 M791.05 324.79 C756.52 324.81,719.30 324.26,631.84 324.60 M789.06 324.86 C729.77 325.26,670.50 324.99,630.94 325.04 M629.28 324.72 C631.26 310.57,629.53 299.37,630.59 278.79 M630.22 326.00 C629.22 307.98,629.73 291.36,630.44 280.99" stroke="#f59e0b" stroke-width="2" fill="none" stroke-linecap="round" stroke-linejoin="round"/>
</g>
<g transform="translate(40.00,70.00)">
<path d="M628.40 349.42 L791.05 351.81 L790.25 393.23 L630.93 396.53" stroke="none" fill="#eebefa"/>
<path d="M630.86 350.96 C661.68 351.16,693.44 348.27,789.21 350.39 M629.35 350.26 C665.86 350.81,700.92 350.24,789.42 350.75 M791.54 348.25 C791.10 361.02,791.79 367.93,791.39 394.13 M790.30 349.20 C790.24 361.22,789.27 374.18,790.41 395.35 M791.05 394.79 C756.52 394.81,719.30 394.26,631.84 394.60 M789.06 394.86 C729.77 395.26,670.50 394.99,630.94 395.04 M629.28 394.72 C631.26 380.57,629.53 369.37,630.59 348.79 M630.22 396.00 C629.22 377.98,629.73 361.36,630.44 350.99" stroke="#ec4899" stroke-width="2" fill="none" stroke-linecap="round" stroke-linejoin="round"/>
</g>
<g transform="translate(40.00,70.00)">
<path d="M628.40 419.42 L791.05 421.81 L790.25 463.23 L630.93 466.53" stroke="none" fill="#ffc9c9"/>
<path d="M630.86 420.96 C661.68 421.16,693.44 418.27,789.21 420.39 M629.35 420.26 C665.86 420.81,700.92 420.24,789.42 420.75 M791.54 418.25 C791.10 431.02,791.79 437.93,791.39 464.13 M790.30 419.20 C790.24 431.22,789.27 444.18,790.41 465.35 M791.05 464.79 C756.52 464.81,719.30 464.26,631.84 464.60 M789.06 464.86 C729.77 465.26,670.50 464.99,630.94 465.04 M629.28 464.72 C631.26 450.57,629.53 439.37,630.59 418.79 M630.22 466.00 C629.22 447.98,629.73 431.36,630.44 420.99" stroke="#ef4444" stroke-width="2" fill="none" stroke-linecap="round" stroke-linejoin="round"/>
</g>
<g transform="translate(40.00,70.00)">
<path d="M628.40 489.42 L791.05 491.81 L790.25 533.23 L630.93 536.53" stroke="none" fill="#c3fae8"/>
<path d="M630.86 490.96 C661.68 491.16,693.44 488.27,789.21 490.39 M629.35 490.26 C665.86 490.81,700.92 490.24,789.42 490.75 M791.54 488.25 C791.10 501.02,791.79 507.93,791.39 534.13 M790.30 489.20 C790.24 501.22,789.27 514.18,790.41 535.35 M791.05 534.79 C756.52 534.81,719.30 534.26,631.84 534.60 M789.06 534.86 C729.77 535.26,670.50 534.99,630.94 535.04 M629.28 534.72 C631.26 520.57,629.53 509.37,630.59 488.79 M630.22 536.00 C629.22 517.98,629.73 501.36,630.44 490.99" stroke="#06b6d4" stroke-width="2" fill="none" stroke-linecap="round" stroke-linejoin="round"/>
</g>
<g transform="translate(40.00,70.00)">
<path d="M628.40 559.42 L791.05 561.81 L790.25 603.23 L630.93 606.53" stroke="none" fill="#d3f9d8"/>
<path d="M630.86 560.96 C661.68 561.16,693.44 558.27,789.21 560.39 M629.35 560.26 C665.86 560.81,700.92 560.24,789.42 560.75 M791.54 558.25 C791.10 571.02,791.79 577.93,791.39 604.13 M790.30 559.20 C790.24 571.22,789.27 584.18,790.41 605.35 M791.05 604.79 C756.52 604.81,719.30 604.26,631.84 604.60 M789.06 604.86 C729.77 605.26,670.50 604.99,630.94 605.04 M629.28 604.72 C631.26 590.57,629.53 579.37,630.59 558.79 M630.22 606.00 C629.22 587.98,629.73 571.36,630.44 560.99" stroke="#84cc16" stroke-width="2" fill="none" stroke-linecap="round" stroke-linejoin="round"/>
</g>
<g transform="translate(40.00,70.00)">
<text x="800.00" y="91.00" font-family="Helvetica, Arial, sans-serif" font-size="11" fill="#757575" text-anchor="start"><tspan x="800.00" dy="0">auto-crystallized</tspan></text>
</g>
<g transform="translate(40.00,70.00)">
<text x="800.00" y="161.00" font-family="Helvetica, Arial, sans-serif" font-size="11" fill="#757575" text-anchor="start"><tspan x="800.00" dy="0">auto-published</tspan></text>
</g>
<g transform="translate(40.00,70.00)">
<text x="800.00" y="231.00" font-family="Helvetica, Arial, sans-serif" font-size="11" fill="#757575" text-anchor="start"><tspan x="800.00" dy="0">auto-deployed</tspan></text>
</g>
<g transform="translate(40.00,70.00)">
<text x="800.00" y="301.00" font-family="Helvetica, Arial, sans-serif" font-size="11" fill="#757575" text-anchor="start"><tspan x="800.00" dy="0">auto-pipeline</tspan></text>
</g>
<g transform="translate(40.00,70.00)">
<text x="800.00" y="371.00" font-family="Helvetica, Arial, sans-serif" font-size="11" fill="#757575" text-anchor="start"><tspan x="800.00" dy="0">auto-compiled</tspan></text>
</g>
<g transform="translate(40.00,70.00)">
<text x="800.00" y="441.00" font-family="Helvetica, Arial, sans-serif" font-size="11" fill="#757575" text-anchor="start"><tspan x="800.00" dy="0">auto-recorded</tspan></text>
</g>
<g transform="translate(40.00,70.00)">
<text x="800.00" y="511.00" font-family="Helvetica, Arial, sans-serif" font-size="11" fill="#757575" text-anchor="start"><tspan x="800.00" dy="0">auto-persisted</tspan></text>
</g>
<g transform="translate(40.00,70.00)">
<text x="800.00" y="581.00" font-family="Helvetica, Arial, sans-serif" font-size="11" fill="#757575" text-anchor="start"><tspan x="800.00" dy="0">auto-enforced</tspan></text>
</g>
<g transform="translate(40.00,70.00)">
<path d="M790.48 610.54 C709.82 622.65,629.68 633.03,389.56 670.22 M789.64 610.15 C701.70 623.74,612.97 636.70,389.68 670.42 M391.11 668.73 C329.90 644.79,269.50 616.61,111.01 549.37 M390.22 669.42 C315.02 637.17,239.17 605.60,110.30 550.26" stroke="#ef4444" stroke-width="2" fill="none" stroke-linecap="round" stroke-linejoin="round" stroke-dasharray="12 8"/>
<path d="M123.83 549.24 C121.69 549.76,118.50 549.95,109.89 549.72 M125.26 548.77 C119.89 548.94,114.83 549.92,109.54 550.03" stroke="#ef4444" stroke-width="2" fill="none" stroke-linecap="round" stroke-linejoin="round"/>
<path d="M108.94 551.01 C111.60 553.48,113.19 555.71,118.87 561.73 M110.36 550.54 C113.61 554.46,117.07 559.09,118.52 562.04" stroke="#ef4444" stroke-width="2" fill="none" stroke-linecap="round" stroke-linejoin="round"/>
</g>
<g transform="translate(40.00,70.00)">
<text x="300.00" y="654.00" font-family="Helvetica, Arial, sans-serif" font-size="14" fill="#ef4444" text-anchor="start"><tspan x="300.00" dy="0">feedback loop -- outputs improve next conversation</tspan></text>
</g>
<g transform="translate(40.00,70.00)">
<text x="200.00" y="728.00" font-family="Helvetica, Arial, sans-serif" font-size="18" fill="#1e1e1e" text-anchor="start"><tspan x="200.00" dy="0">The AI just talks. The infrastructure does the rest. That's holographic.</tspan></text>
</g>
<g transform="translate(40.00,70.00)">
<text x="250.00" y="750.00" font-family="Helvetica, Arial, sans-serif" font-size="14" fill="#757575" text-anchor="start"><tspan x="250.00" dy="0">Works in ANY niche. Same conversation, same outputs.</tspan></text>
</g>
<g transform="translate(40.0,70.0)"><text x="90" y="244" font-family="Helvetica, Arial, sans-serif" font-size="18" fill="#1e1e1e" text-anchor="middle">YOU + AI</text></g>
<g transform="translate(40.0,70.0)"><text x="90" y="266" font-family="Helvetica, Arial, sans-serif" font-size="18" fill="#1e1e1e" text-anchor="middle">One topic</text></g>
<g transform="translate(40.0,70.0)"><text x="90" y="288" font-family="Helvetica, Arial, sans-serif" font-size="18" fill="#1e1e1e" text-anchor="middle">Any niche</text></g>
<g transform="translate(40.0,70.0)"><text x="380" y="221" font-family="Helvetica, Arial, sans-serif" font-size="14" fill="#4a9eed" text-anchor="middle">INFRA</text></g>
<g transform="translate(40.0,70.0)"><text x="380" y="239" font-family="Helvetica, Arial, sans-serif" font-size="14" fill="#4a9eed" text-anchor="middle"></text></g>
<g transform="translate(40.0,70.0)"><text x="380" y="257" font-family="Helvetica, Arial, sans-serif" font-size="14" fill="#4a9eed" text-anchor="middle">skills</text></g>
<g transform="translate(40.0,70.0)"><text x="380" y="275" font-family="Helvetica, Arial, sans-serif" font-size="14" fill="#4a9eed" text-anchor="middle">hooks</text></g>
<g transform="translate(40.0,70.0)"><text x="380" y="293" font-family="Helvetica, Arial, sans-serif" font-size="14" fill="#4a9eed" text-anchor="middle">automations</text></g>
<g transform="translate(40.0,70.0)"><text x="380" y="311" font-family="Helvetica, Arial, sans-serif" font-size="14" fill="#4a9eed" text-anchor="middle">progressive</text></g>
<g transform="translate(40.0,70.0)"><text x="380" y="329" font-family="Helvetica, Arial, sans-serif" font-size="14" fill="#4a9eed" text-anchor="middle">disclosure</text></g>
<g transform="translate(40.0,70.0)"><text x="710" y="98" font-family="Helvetica, Arial, sans-serif" font-size="16" fill="#1e1e1e" text-anchor="middle">Skill</text></g>
<g transform="translate(40.0,70.0)"><text x="710" y="167" font-family="Helvetica, Arial, sans-serif" font-size="14" fill="#1e1e1e" text-anchor="middle">Blog / Framework</text></g>
<g transform="translate(40.0,70.0)"><text x="710" y="238" font-family="Helvetica, Arial, sans-serif" font-size="16" fill="#1e1e1e" text-anchor="middle">Code + Deploy</text></g>
<g transform="translate(40.0,70.0)"><text x="710" y="307" font-family="Helvetica, Arial, sans-serif" font-size="14" fill="#1e1e1e" text-anchor="middle">Content Pipeline</text></g>
<g transform="translate(40.0,70.0)"><text x="710" y="377" font-family="Helvetica, Arial, sans-serif" font-size="14" fill="#1e1e1e" text-anchor="middle">Business / Egregore</text></g>
<g transform="translate(40.0,70.0)"><text x="710" y="448" font-family="Helvetica, Arial, sans-serif" font-size="16" fill="#1e1e1e" text-anchor="middle">Autobiography</text></g>
<g transform="translate(40.0,70.0)"><text x="710" y="517" font-family="Helvetica, Arial, sans-serif" font-size="14" fill="#1e1e1e" text-anchor="middle">Knowledge Graph</text></g>
<g transform="translate(40.0,70.0)"><text x="710" y="587" font-family="Helvetica, Arial, sans-serif" font-size="14" fill="#1e1e1e" text-anchor="middle">Rules + Invariants</text></g>
</svg>