<svg xmlns="http://www.w3.org/2000/svg" width="1160" height="426" viewBox="0 0 1160 426">
<defs><style>

</style></defs>
<rect width="100%" height="100%" fill="#ffffff"/>
<g transform="translate(10.00,30.00)">
<text x="350.00" y="42.00" font-family="Helvetica, Arial, sans-serif" font-size="32" fill="#1e1e1e" text-anchor="start"><tspan x="350.00" dy="0">HOLOGRAPHIC WORK</tspan></text>
</g>
<g transform="translate(10.00,30.00)">
<text x="220.00" y="66.00" font-family="Helvetica, Arial, sans-serif" font-size="16" fill="#757575" text-anchor="start"><tspan x="220.00" dy="0">One conversation enters. The infrastructure refracts it into everything.</tspan></text>
</g>
<g transform="translate(10.00,30.00)">
<path d="M128.65 112.09 C140.15 112.29,153.59 116.20,164.35 119.78 C175.12 123.36,186.52 127.70,193.24 133.57 C199.95 139.44,203.23 147.96,204.64 155.00 C206.05 162.04,205.84 169.27,201.70 175.81 C197.55 182.35,188.51 189.47,179.77 194.24 C171.03 199.01,160.76 202.03,149.26 204.43 C137.77 206.83,123.20 209.34,110.82 208.63 C98.44 207.92,85.67 204.09,75.00 200.19 C64.33 196.28,53.43 191.10,46.78 185.19 C40.14 179.27,36.28 171.61,35.14 164.69 C33.99 157.77,35.71 150.00,39.90 143.69 C44.08 137.38,51.76 131.59,60.27 126.84 C68.77 122.09,78.62 117.60,90.94 115.17 C103.26 112.73,126.39 112.38,134.19 112.23 C141.98 112.07,137.93 113.41,137.73 114.25 M86.59 115.28 C96.93 111.83,110.40 111.25,122.43 111.46 C134.47 111.68,147.71 113.01,158.82 116.56 C169.93 120.11,181.43 127.09,189.11 132.77 C196.79 138.45,202.68 144.09,204.88 150.64 C207.09 157.19,205.87 165.51,202.35 172.08 C198.82 178.64,191.87 184.91,183.74 190.04 C175.62 195.17,164.92 199.71,153.60 202.86 C142.29 206.00,127.96 208.96,115.83 208.91 C103.70 208.86,91.33 205.84,80.82 202.58 C70.31 199.32,60.14 194.94,52.76 189.36 C45.38 183.79,39.11 176.10,36.53 169.11 C33.96 162.12,34.02 154.39,37.32 147.44 C40.63 140.49,48.29 132.87,56.35 127.40 C64.42 121.94,80.66 116.38,85.72 114.64 C90.78 112.90,86.08 116.19,86.71 116.96" stroke="none" fill="#fff3bf"/>
<path d="M140.12 112.59 C151.80 113.40,164.56 118.71,174.01 123.23 C183.47 127.74,191.53 133.54,196.85 139.70 C202.17 145.85,205.95 153.10,205.92 160.15 C205.89 167.19,202.16 175.63,196.67 181.95 C191.19 188.26,182.80 193.98,173.01 198.05 C163.21 202.11,150.00 205.04,137.89 206.31 C125.78 207.59,112.47 207.23,100.35 205.72 C88.22 204.20,74.67 201.62,65.13 197.20 C55.59 192.78,48.14 185.43,43.13 179.20 C38.12 172.97,34.83 166.74,35.06 159.82 C35.29 152.90,38.91 144.04,44.49 137.67 C50.06 131.30,58.91 125.65,68.50 121.61 C78.09 117.56,88.41 114.42,102.04 113.42 C115.67 112.42,140.75 114.68,150.27 115.60 C159.80 116.53,159.76 118.40,159.20 118.97 M119.90 112.47 C131.81 111.88,148.38 114.74,159.63 117.90 C170.88 121.05,180.10 126.27,187.41 131.41 C194.71 136.54,200.94 141.83,203.46 148.71 C205.99 155.59,205.48 165.54,202.54 172.68 C199.59 179.81,193.62 186.37,185.81 191.53 C178.00 196.69,167.08 200.93,155.69 203.63 C144.29 206.33,129.74 207.76,117.42 207.71 C105.09 207.65,92.35 206.35,81.72 203.29 C71.09 200.23,60.95 194.89,53.63 189.35 C46.30 183.82,40.62 176.68,37.80 170.09 C34.98 163.49,34.05 156.62,36.71 149.79 C39.38 142.95,45.95 134.45,53.79 129.07 C61.63 123.69,72.71 120.38,83.75 117.49 C94.79 114.60,113.77 112.39,120.02 111.73 C126.28 111.06,121.26 112.46,121.28 113.48" stroke="#f59e0b" stroke-width="3" fill="none" stroke-linecap="round" stroke-linejoin="round"/>
</g>
<g transform="translate(10.00,30.00)">
<path d="M210.86 160.96 C227.68 161.16,245.44 158.27,299.21 160.39 M209.35 160.26 C230.36 160.81,249.93 160.24,299.42 160.75" stroke="#f59e0b" stroke-width="4" fill="none" stroke-linecap="round" stroke-linejoin="round"/>
<path d="M277.80 173.35 C283.07 170.98,286.95 168.35,299.85 159.63 M279.70 172.72 C286.90 167.99,294.65 164.17,299.38 160.03" stroke="#f59e0b" stroke-width="4" fill="none" stroke-linecap="round" stroke-linejoin="round"/>
<path d="M298.58 161.35 C295.52 159.17,291.07 156.54,279.06 147.63 M300.48 160.72 C292.86 155.82,285.79 152.01,278.60 148.03" stroke="#f59e0b" stroke-width="4" fill="none" stroke-linecap="round" stroke-linejoin="round"/>
</g>
<g transform="translate(10.00,30.00)">
<text x="215.00" y="151.00" font-family="Helvetica, Arial, sans-serif" font-size="13" fill="#f59e0b" text-anchor="start"><tspan x="215.00" dy="0">conversation</tspan></text>
</g>
<g transform="translate(10.00,30.00)">
<path d="M378.40 89.42 L461.05 166.81 L380.25 238.23 L300.93 166.53" stroke="none" fill="#dbe4ff"/>
<path d="M380.86 90.96 C395.68 106.16,411.44 118.27,459.21 165.39 M379.35 90.26 C398.15 107.42,415.50 123.45,459.42 165.75 M461.54 163.25 C443.70 182.54,426.99 195.98,381.39 239.13 M460.30 164.20 C438.77 184.27,416.32 205.29,380.41 240.35 M381.05 239.79 C363.78 223.63,343.81 206.91,301.84 164.60 M379.06 239.86 C349.84 212.07,320.65 183.61,300.94 165.04 M299.28 164.72 C324.21 141.96,345.42 122.16,380.59 88.79 M300.22 166.00 C328.33 137.06,357.93 109.53,380.44 90.99" stroke="#4a9eed" stroke-width="3" fill="none" stroke-linecap="round" stroke-linejoin="round"/>
</g>
<g transform="translate(10.00,30.00)">
<path d="M460.86 165.96 C475.68 166.16,491.44 163.27,539.21 165.39 M459.35 165.26 C478.15 165.81,495.50 165.24,539.42 165.75" stroke="#1e1e1e" stroke-width="3" fill="none" stroke-linecap="round" stroke-linejoin="round"/>
<path d="M523.14 175.22 C527.25 173.46,530.13 171.45,539.86 164.66 M524.85 174.65 C530.23 171.02,536.10 168.23,539.44 165.03" stroke="#1e1e1e" stroke-width="3" fill="none" stroke-linecap="round" stroke-linejoin="round"/>
<path d="M538.73 166.22 C536.59 164.60,533.22 162.59,524.27 155.66 M540.44 165.65 C534.70 161.89,529.45 159.10,523.86 156.03" stroke="#1e1e1e" stroke-width="3" fill="none" stroke-linecap="round" stroke-linejoin="round"/>
</g>
<g transform="translate(10.00,30.00)">
<text x="465.00" y="158.00" font-family="Helvetica, Arial, sans-serif" font-size="13" fill="#757575" text-anchor="start"><tspan x="465.00" dy="0">refracts</tspan></text>
</g>
<g transform="translate(10.00,30.00)">
<path d="M558.40 89.42 L691.05 91.81 L690.25 130.23 L560.93 133.53" stroke="none" fill="#a5d8ff"/>
<path d="M560.86 90.96 C585.68 91.16,611.44 88.27,689.21 90.39 M559.35 90.26 C589.22 90.81,617.64 90.24,689.42 90.75 M691.54 88.25 C691.10 100.37,691.79 106.63,691.39 131.13 M690.30 89.20 C690.24 100.41,689.27 112.57,690.41 132.35 M691.05 131.79 C662.99 131.81,632.24 131.26,561.84 131.60 M689.06 131.86 C641.04 132.26,593.06 131.99,560.94 132.04 M559.28 131.72 C561.26 118.43,559.53 108.09,560.59 88.79 M560.22 133.00 C559.22 116.07,559.73 100.54,560.44 90.99" stroke="#4a9eed" stroke-width="2" fill="none" stroke-linecap="round" stroke-linejoin="round"/>
</g>
<g transform="translate(10.00,30.00)">
<path d="M698.40 89.42 L831.05 91.81 L830.25 130.23 L700.93 133.53" stroke="none" fill="#b2f2bb"/>
<path d="M700.86 90.96 C725.68 91.16,751.44 88.27,829.21 90.39 M699.35 90.26 C729.22 90.81,757.64 90.24,829.42 90.75 M831.54 88.25 C831.10 100.37,831.79 106.63,831.39 131.13 M830.30 89.20 C830.24 100.41,829.27 112.57,830.41 132.35 M831.05 131.79 C802.99 131.81,772.24 131.26,701.84 131.60 M829.06 131.86 C781.04 132.26,733.06 131.99,700.94 132.04 M699.28 131.72 C701.26 118.43,699.53 108.09,700.59 88.79 M700.22 133.00 C699.22 116.07,699.73 100.54,700.44 90.99" stroke="#22c55e" stroke-width="2" fill="none" stroke-linecap="round" stroke-linejoin="round"/>
</g>
<g transform="translate(10.00,30.00)">
<path d="M838.40 89.42 L971.05 91.81 L970.25 130.23 L840.93 133.53" stroke="none" fill="#d0bfff"/>
<path d="M840.86 90.96 C865.68 91.16,891.44 88.27,969.21 90.39 M839.35 90.26 C869.22 90.81,897.64 90.24,969.42 90.75 M971.54 88.25 C971.10 100.37,971.79 106.63,971.39 131.13 M970.30 89.20 C970.24 100.41,969.27 112.57,970.41 132.35 M971.05 131.79 C942.99 131.81,912.24 131.26,841.84 131.60 M969.06 131.86 C921.04 132.26,873.06 131.99,840.94 132.04 M839.28 131.72 C841.26 118.43,839.53 108.09,840.59 88.79 M840.22 133.00 C839.22 116.07,839.73 100.54,840.44 90.99" stroke="#8b5cf6" stroke-width="2" fill="none" stroke-linecap="round" stroke-linejoin="round"/>
</g>
<g transform="translate(10.00,30.00)">
<path d="M978.40 89.42 L1111.05 91.81 L1110.25 130.23 L980.93 133.53" stroke="none" fill="#ffd8a8"/>
<path d="M980.86 90.96 C1005.68 91.16,1031.44 88.27,1109.21 90.39 M979.35 90.26 C1009.22 90.81,1037.64 90.24,1109.42 90.75 M1111.54 88.25 C1111.10 100.37,1111.79 106.63,1111.39 131.13 M1110.30 89.20 C1110.24 100.41,1109.27 112.57,1110.41 132.35 M1111.05 131.79 C1082.99 131.81,1052.24 131.26,981.84 131.60 M1109.06 131.86 C1061.04 132.26,1013.06 131.99,980.94 132.04 M979.28 131.72 C981.26 118.43,979.53 108.09,980.59 88.79 M980.22 133.00 C979.22 116.07,979.73 100.54,980.44 90.99" stroke="#f59e0b" stroke-width="2" fill="none" stroke-linecap="round" stroke-linejoin="round"/>
</g>
<g transform="translate(10.00,30.00)">
<path d="M558.40 184.42 L691.05 186.81 L690.25 225.23 L560.93 228.53" stroke="none" fill="#eebefa"/>
<path d="M560.86 185.96 C585.68 186.16,611.44 183.27,689.21 185.39 M559.35 185.26 C589.22 185.81,617.64 185.24,689.42 185.75 M691.54 183.25 C691.10 195.37,691.79 201.63,691.39 226.13 M690.30 184.20 C690.24 195.41,689.27 207.57,690.41 227.35 M691.05 226.79 C662.99 226.81,632.24 226.26,561.84 226.60 M689.06 226.86 C641.04 227.26,593.06 226.99,560.94 227.04 M559.28 226.72 C561.26 213.43,559.53 203.09,560.59 183.79 M560.22 228.00 C559.22 211.07,559.73 195.54,560.44 185.99" stroke="#ec4899" stroke-width="2" fill="none" stroke-linecap="round" stroke-linejoin="round"/>
</g>
<g transform="translate(10.00,30.00)">
<path d="M698.40 184.42 L831.05 186.81 L830.25 225.23 L700.93 228.53" stroke="none" fill="#ffc9c9"/>
<path d="M700.86 185.96 C725.68 186.16,751.44 183.27,829.21 185.39 M699.35 185.26 C729.22 185.81,757.64 185.24,829.42 185.75 M831.54 183.25 C831.10 195.37,831.79 201.63,831.39 226.13 M830.30 184.20 C830.24 195.41,829.27 207.57,830.41 227.35 M831.05 226.79 C802.99 226.81,772.24 226.26,701.84 226.60 M829.06 226.86 C781.04 227.26,733.06 226.99,700.94 227.04 M699.28 226.72 C701.26 213.43,699.53 203.09,700.59 183.79 M700.22 228.00 C699.22 211.07,699.73 195.54,700.44 185.99" stroke="#ef4444" stroke-width="2" fill="none" stroke-linecap="round" stroke-linejoin="round"/>
</g>
<g transform="translate(10.00,30.00)">
<path d="M838.40 184.42 L971.05 186.81 L970.25 225.23 L840.93 228.53" stroke="none" fill="#c3fae8"/>
<path d="M840.86 185.96 C865.68 186.16,891.44 183.27,969.21 185.39 M839.35 185.26 C869.22 185.81,897.64 185.24,969.42 185.75 M971.54 183.25 C971.10 195.37,971.79 201.63,971.39 226.13 M970.30 184.20 C970.24 195.41,969.27 207.57,970.41 227.35 M971.05 226.79 C942.99 226.81,912.24 226.26,841.84 226.60 M969.06 226.86 C921.04 227.26,873.06 226.99,840.94 227.04 M839.28 226.72 C841.26 213.43,839.53 203.09,840.59 183.79 M840.22 228.00 C839.22 211.07,839.73 195.54,840.44 185.99" stroke="#06b6d4" stroke-width="2" fill="none" stroke-linecap="round" stroke-linejoin="round"/>
</g>
<g transform="translate(10.00,30.00)">
<path d="M978.40 184.42 L1111.05 186.81 L1110.25 225.23 L980.93 228.53" stroke="none" fill="#d3f9d8"/>
<path d="M980.86 185.96 C1005.68 186.16,1031.44 183.27,1109.21 185.39 M979.35 185.26 C1009.22 185.81,1037.64 185.24,1109.42 185.75 M1111.54 183.25 C1111.10 195.37,1111.79 201.63,1111.39 226.13 M1110.30 184.20 C1110.24 195.41,1109.27 207.57,1110.41 227.35 M1111.05 226.79 C1082.99 226.81,1052.24 226.26,981.84 226.60 M1109.06 226.86 C1061.04 227.26,1013.06 226.99,980.94 227.04 M979.28 226.72 C981.26 213.43,979.53 203.09,980.59 183.79 M980.22 228.00 C979.22 211.07,979.73 195.54,980.44 185.99" stroke="#84cc16" stroke-width="2" fill="none" stroke-linecap="round" stroke-linejoin="round"/>
</g>
<g transform="translate(10.00,30.00)">
<text x="560.00" y="146.00" font-family="Helvetica, Arial, sans-serif" font-size="10" fill="#757575" text-anchor="start"><tspan x="560.00" dy="0">auto-crystallized       auto-published         auto-deployed          auto-pipeline</tspan></text>
</g>
<g transform="translate(10.00,30.00)">
<text x="560.00" y="241.00" font-family="Helvetica, Arial, sans-serif" font-size="10" fill="#757575" text-anchor="start"><tspan x="560.00" dy="0">auto-compiled          auto-recorded          auto-persisted           auto-enforced</tspan></text>
</g>
<g transform="translate(10.00,30.00)">
<path d="M1050.86 230.96 C1049.68 243.16,1049.44 252.27,1049.21 290.39 M1049.35 230.26 C1050.44 244.09,1050.09 256.81,1049.42 290.75 M1050.61 289.30 C848.16 290.49,646.16 289.34,120.56 289.65 M1050.12 289.68 C800.49 289.66,550.49 290.01,120.16 290.14 M121.05 289.79 C121.03 263.93,118.32 237.50,121.84 169.60 M119.06 289.86 C119.91 245.15,120.80 199.77,120.94 170.04" stroke="#ef4444" stroke-width="2" fill="none" stroke-linecap="round" stroke-linejoin="round" stroke-dasharray="12 8"/>
<path d="M126.44 184.00 C125.75 181.53,124.04 178.76,119.89 169.72 M127.86 183.53 C124.99 178.47,122.57 174.18,119.54 170.03" stroke="#ef4444" stroke-width="2" fill="none" stroke-linecap="round" stroke-linejoin="round"/>
<path d="M118.94 171.01 C118.30 173.75,116.59 176.18,112.39 182.71 M120.36 170.54 C117.74 174.74,115.32 179.72,112.04 183.02" stroke="#ef4444" stroke-width="2" fill="none" stroke-linecap="round" stroke-linejoin="round"/>
</g>
<g transform="translate(10.00,30.00)">
<text x="350.00" y="293.00" font-family="Helvetica, Arial, sans-serif" font-size="13" fill="#ef4444" text-anchor="start"><tspan x="350.00" dy="0">feedback loop -- outputs improve next conversation</tspan></text>
</g>
<g transform="translate(10.00,30.00)">
<text x="250.00" y="348.00" font-family="Helvetica, Arial, sans-serif" font-size="18" fill="#1e1e1e" text-anchor="start"><tspan x="250.00" dy="0">The AI just talks. The infrastructure does the rest. That's holographic.</tspan></text>
</g>
<g transform="translate(10.00,30.00)">
<text x="310.00" y="370.00" font-family="Helvetica, Arial, sans-serif" font-size="14" fill="#757575" text-anchor="start"><tspan x="310.00" dy="0">Works in ANY niche. Same conversation, same outputs.</tspan></text>
</g>
<g transform="translate(10.00,30.00)">
<text x="30.00" y="237.00" font-family="Helvetica, Arial, sans-serif" font-size="12" fill="#f59e0b" text-anchor="start"><tspan x="30.00" dy="0">each output = the WHOLE</tspan><tspan x="30.00" dy="15">compressed to one facet</tspan></text>
</g>
<g transform="translate(10.00,30.00)">
<text x="30.00" y="277.00" font-family="Helvetica, Arial, sans-serif" font-size="12" fill="#ef4444" text-anchor="start"><tspan x="30.00" dy="0">AI doesn't know most</tspan><tspan x="30.00" dy="15">of this is happening</tspan></text>
</g>
<g transform="translate(10.0,30.0)"><text x="120" y="155" font-family="Helvetica, Arial, sans-serif" font-size="18" fill="#1e1e1e" text-anchor="middle">YOU + AI</text></g>
<g transform="translate(10.0,30.0)"><text x="120" y="177" font-family="Helvetica, Arial, sans-serif" font-size="18" fill="#1e1e1e" text-anchor="middle">Any niche</text></g>
<g transform="translate(10.0,30.0)"><text x="380" y="143" font-family="Helvetica, Arial, sans-serif" font-size="14" fill="#4a9eed" text-anchor="middle">INFRA</text></g>
<g transform="translate(10.0,30.0)"><text x="380" y="161" font-family="Helvetica, Arial, sans-serif" font-size="14" fill="#4a9eed" text-anchor="middle">skills</text></g>
<g transform="translate(10.0,30.0)"><text x="380" y="179" font-family="Helvetica, Arial, sans-serif" font-size="14" fill="#4a9eed" text-anchor="middle">hooks</text></g>
<g transform="translate(10.0,30.0)"><text x="380" y="197" font-family="Helvetica, Arial, sans-serif" font-size="14" fill="#4a9eed" text-anchor="middle">auto</text></g>
<g transform="translate(10.0,30.0)"><text x="625" y="117" font-family="Helvetica, Arial, sans-serif" font-size="16" fill="#1e1e1e" text-anchor="middle">Skill</text></g>
<g transform="translate(10.0,30.0)"><text x="765" y="117" font-family="Helvetica, Arial, sans-serif" font-size="16" fill="#1e1e1e" text-anchor="middle">Blog</text></g>
<g transform="translate(10.0,30.0)"><text x="905" y="117" font-family="Helvetica, Arial, sans-serif" font-size="16" fill="#1e1e1e" text-anchor="middle">Code</text></g>
<g transform="translate(10.0,30.0)"><text x="1045" y="117" font-family="Helvetica, Arial, sans-serif" font-size="16" fill="#1e1e1e" text-anchor="middle">Content</text></g>
<g transform="translate(10.0,30.0)"><text x="625" y="212" font-family="Helvetica, Arial, sans-serif" font-size="16" fill="#1e1e1e" text-anchor="middle">Business</text></g>
<g transform="translate(10.0,30.0)"><text x="765" y="211" font-family="Helvetica, Arial, sans-serif" font-size="13" fill="#1e1e1e" text-anchor="middle">Autobiography</text></g>
<g transform="translate(10.0,30.0)"><text x="905" y="212" font-family="Helvetica, Arial, sans-serif" font-size="16" fill="#1e1e1e" text-anchor="middle">Knowledge</text></g>
<g transform="translate(10.0,30.0)"><text x="1045" y="212" font-family="Helvetica, Arial, sans-serif" font-size="16" fill="#1e1e1e" text-anchor="middle">Rules</text></g>
</svg>